<svg xmlns="http://www.w3.org/2000/svg" viewBox="0 0 543 146.38"><defs><style>.cls-1{fill:#231f20;}.cls-2{font-size:59.72px;fill:#414042;font-family:CourierNewPSMT, Courier New;}</style></defs><g id="Layer_2" data-name="Layer 2"><g id="Layer_1-2" data-name="Layer 1"><path class="cls-1" d="M50.37,83.65a422.16,422.16,0,0,0,0-57.35l-1.21,2.93c.23-.22.52-.4.74-.63-.94,1-.35.26.05,0s.79-.52,1.2-.75.8-.42,1.21-.62c.88-.45-.87.28.11,0,.19-.07.39-.15.59-.21a14.78,14.78,0,0,1,1.58-.43c.18,0,1.28-.15.28-.07.36,0,.72-.06,1.09-.07a11.11,11.11,0,0,1,1.91.09c-.85-.12.36.1.46.12l.71.19c.36.1.71.23,1.07.34.13.05.72.31.06,0a16.81,16.81,0,0,1,2,1.07c.32.2.63.41.94.64-.14-.11-.55-.48,0,0a17.32,17.32,0,0,1,1.29,1.28c.73.79-.3-.65.2.28.1.19.23.4.35.58.54.87-.14-.74.12.23,0,.19.34.81.24,1,.06-.09,0-1-.05-.26v.53c0,1.07.26-.89,0,.16-.09.35-.18.69-.29,1,0,.12-.31.84,0,.13s-.12.19-.19.33a6.22,6.22,0,0,1-1.31,2c.63-.42.4-.49.1-.14l-.42.5c-.35.39-.71.78-1.08,1.16a45.52,45.52,0,0,1-4.3,3.79c-.22.18-.4.5.2-.14a5.09,5.09,0,0,1-.64.48l-1.06.79c-.73.53-1.47,1.06-2.22,1.58-1.11.79-2.23,1.55-3.32,2.37a10.12,10.12,0,0,0-3,2.88,4.44,4.44,0,0,0,3.85,6.62c1.63,0,3.15-.84,4.6-1.49l2.2-1c.88-.39-.89.35,0,0l.55-.22c.58-.23,1.17-.45,1.76-.66,1.09-.38,2.19-.72,3.3-1,.6-.15,1.2-.29,1.8-.41l1.13-.21c1.24-.22-.83.07.45-.06a30.33,30.33,0,0,1,6.1,0c.4,0,1.44.37.16,0a12,12,0,0,0,1.2.19c1,.18,2,.4,3,.68a31.57,31.57,0,0,1,3,1c-.84-.33-.12,0,.09.06l.77.37c.63.32,1.25.66,1.85,1s1,.66,1.5,1c-.59-.45-.07,0,0,0,.28.25.57.49.85.75a19.07,19.07,0,0,1,1.32,1.38c.16.18.31.36.46.55-.58-.72.3.44.4.58a21.59,21.59,0,0,1,1.62,3c-.35-.77-.09-.23,0-.06s.23.63.33.95c.21.62.39,1.26.54,1.9s.23,1.07.32,1.61c0,.21.07.42.1.64-.16-1.1,0,0,0,.18a34.25,34.25,0,0,1,.14,3.5c0,1-.08,2-.18,3.07l-.06.59c0,.3,0,1.18,0,.06a7.27,7.27,0,0,1-.24,1.54,48.25,48.25,0,0,1-1.12,4.9c-.29,1.07-.63,2.12-1,3.16-.24.71-.51,1.41-.78,2.11-.41,1,.38-.81-.14.31l-.32.72c-.39.81-.79,1.61-1.22,2.4s-.9,1.58-1.39,2.34q-.47.73-1,1.44a13.49,13.49,0,0,0-1.36,1.87c.36-.81.41-.53.15-.2-.13.16-.25.32-.38.47-.26.33-.53.65-.8,1-.65.77-1.32,1.51-2,2.23a50.52,50.52,0,0,1-4.77,4.36c-.59.49-.06,0,.06,0l-.81.6c-.47.34-.93.66-1.41,1-1.09.73-2.2,1.41-3.35,2S67,107.47,65.85,108c.66-.29.05,0-.07,0l-1.09.42q-1.17.43-2.34.78a40,40,0,0,1-4.16,1l-.82.15s-1.39.19-.52.09c-.8.09-1.6.17-2.4.22a48.73,48.73,0,0,1-7.83-.23c-.72-.07,1,.16-.16,0l-.89-.14c-.58-.1-1.17-.21-1.74-.33-1.23-.25-2.45-.56-3.65-.9-1-.3-2.06-.63-3.07-1l-1.44-.54-.69-.28c-.49-.19-.68-.29-.08,0a56.36,56.36,0,0,1-8.19-4.36c-.55-.36-1.08-.74-1.61-1.12-1-.7.61.51-.31-.24l-.56-.45c-.46-.38-.9-.76-1.34-1.15-.95-.85-1.85-1.74-2.71-2.66S18.7,95.55,18,94.69s.31.47-.06-.07c-.15-.23-.33-.44-.49-.66-.38-.52-.74-1.06-1.1-1.6a45.83,45.83,0,0,1-3.23-5.76c-.22-.46-.43-.93-.64-1.4-.3-.69,0,0,.07.15-.12-.29-.23-.57-.34-.85-.4-1-.77-2.06-1.1-3.1a59.64,59.64,0,0,1-1.55-5.87c-.18-.91-.35-1.82-.5-2.73l-.21-1.34c0-.31.06-.65,0,.31a5.64,5.64,0,0,0-.11-.92c-.2-1.75-.33-3.5-.41-5.26a75.88,75.88,0,0,1,.14-8.53c.07-1,.17-2,.29-3.05,0-.19,0-.38.07-.57.11-.93-.15,1-.07.5l.12-.85a68.43,68.43,0,0,1,3.86-14.61,5.8,5.8,0,0,1,.5-1.23s-.36.82-.1.24l.33-.76c.43-.95.89-1.88,1.36-2.81a57.81,57.81,0,0,1,3.24-5.47c.6-.89,1.22-1.75,1.87-2.6-.09.11-.53.66,0,.07l.63-.77c.39-.47.79-.94,1.2-1.4A48.84,48.84,0,0,1,27,18.66l.7-.58c.91-.74-.39.29.18-.14s1-.74,1.52-1.1c1.1-.77,2.24-1.5,3.41-2.18,1.35-.8,2.75-1.53,4.17-2.19a36.61,36.61,0,0,1,4-1.59,51.67,51.67,0,0,1,8.56-2.1c.07,0,1.39-.18.49-.07l.78-.09,1.95-.18q2.07-.15,4.14-.15a66.1,66.1,0,0,1,7.31.45c1.07.12-.63-.11,0,0l.78.12,1.53.25c1,.19,2.08.4,3.11.64a60.42,60.42,0,0,1,8.2,2.47l.52.2c.18.08,1,.43.4.16,1.33.56,2.64,1.18,3.93,1.85a56.14,56.14,0,0,1,6.51,4c.54.38,1.06.77,1.58,1.16-.12-.09-.61-.49,0,0l.81.66c.92.75,1.81,1.54,2.67,2.35a57.8,57.8,0,0,1,4.53,4.73c.33.39.65.77,1,1.17l.56.69c.62.76-.38-.52,0,0,.58.8,1.18,1.59,1.75,2.4q1.55,2.23,2.9,4.59,1.16,2,2.17,4.08c.27.56.54,1.13.79,1.7.12.25.23.51.35.77l.18.44c.26.58-.43-1-.18-.44A51.6,51.6,0,0,1,110.72,50c.3,1.27.55,2.55.74,3.84l.06.4c.13.8-.12-1.09,0-.28l.12,1.07c.09.82.16,1.65.2,2.48a63,63,0,0,1-.35,11.15l-.09.77c-.12,1,.11-.67,0,0s-.15,1.06-.24,1.59c-.19,1.22-.42,2.44-.67,3.65-.51,2.47-1.13,4.93-1.84,7.36a120.56,120.56,0,0,1-6.16,16.44c-.89,2-.62,4.55,1.49,5.67,1.82,1,4.71.62,5.67-1.49,7.94-17.4,14.12-38.13,8.47-57.17-5-16.84-17.66-32-33.63-39.36A66.78,66.78,0,0,0,60,.08,56.06,56.06,0,0,0,22.45,11.77C10.1,21.42,3,36.34.81,51.65-1.38,67.11.67,84.27,9.72,97.35c11,15.93,32,24.55,51.09,20.78C78.6,114.61,93,99.8,97.74,82.58c2.8-10.15,3-21.78-4-30.32s-19.31-11-29.64-9a40.3,40.3,0,0,0-7.51,2.25c-1.16.47-2.32,1-3.47,1.48l-1.22.55-.53.24c-.83.38.55-.19.3-.12a4,4,0,0,0-.66.23c-.31.15-1.22-.06.74-.07a4.3,4.3,0,0,1,2.61,1.14,3.67,3.67,0,0,1,.83,4.24c-.26.68-.24.54-.12.34-.7,1.22-.6.72-.16.31l.49-.41c.48-.43-.93.68-.37.28.14-.09.27-.2.4-.29.64-.47,1.28-.92,1.93-1.38A77.5,77.5,0,0,0,67.59,44c3.13-3.08,6-7.08,6.06-11.66,0-6.89-6.58-12-12.71-13.59A18.81,18.81,0,0,0,45,22a16.7,16.7,0,0,0-1.67,1.35c-1.74,1.74-1.15,4.27-1,6.47q.31,5.19.49,10.39.41,11.25.19,22.52-.2,10.47-.91,20.93a4.17,4.17,0,0,0,4.15,4.15,4.24,4.24,0,0,0,4.14-4.15Z"/><text class="cls-2" transform="translate(128.21 105.79)">atool</text><text class="cls-2" transform="translate(327.96 105.79)">Design</text></g></g></svg>